<?xml version="1.0" encoding="utf-8" ?>
<svg baseProfile="full" height="200" version="1.1" width="200" xmlns="http://www.w3.org/2000/svg"><defs /><polygon fill="black" points="175,159 174,160 172,160 171,161 170,161 165,166 165,167 164,168 164,179 165,180 165,181 170,186 171,186 172,187 174,187 175,188 182,188 183,187 185,187 186,186 187,186 191,182 191,181 192,180 192,179 193,178 193,169 192,168 192,167 191,166 191,165 187,161 186,161 185,160 183,160 182,159" /><polygon fill="black" points="77,11 76,12 70,12 69,13 65,13 64,14 62,14 61,15 59,15 58,16 56,16 55,17 53,17 52,18 51,18 50,19 49,19 48,20 47,20 46,21 45,21 44,22 43,22 42,23 41,23 39,25 38,25 36,27 35,27 31,31 30,31 23,38 23,39 18,44 18,45 16,47 16,48 15,49 15,50 13,52 13,53 12,54 12,55 11,56 11,57 10,58 10,59 9,60 9,61 8,62 8,64 7,65 7,67 6,68 6,70 5,71 5,74 4,75 4,78 3,79 3,85 2,86 2,115 3,116 3,121 4,122 4,126 5,127 5,130 6,131 6,133 7,134 7,136 8,137 8,138 9,139 9,141 10,142 10,143 11,144 11,145 12,146 12,147 14,149 14,150 16,152 16,153 17,154 17,155 19,157 19,158 26,165 26,166 27,166 34,173 35,173 37,175 38,175 39,176 40,176 42,178 43,178 44,179 45,179 46,180 47,180 48,181 49,181 50,182 51,182 52,183 53,183 54,184 56,184 57,185 59,185 60,186 63,186 64,187 67,187 68,188 72,188 73,189 81,189 82,190 96,190 97,189 106,189 107,188 112,188 113,187 116,187 117,186 119,186 120,185 122,185 123,184 125,184 126,183 128,183 129,182 130,182 131,181 133,181 134,180 135,180 136,179 137,179 138,178 139,178 140,177 141,177 142,176 143,176 144,175 145,175 147,173 148,173 149,172 149,171 150,170 150,169 151,168 151,162 150,161 150,160 147,157 146,157 145,156 138,156 137,157 136,157 135,158 134,158 133,159 132,159 131,160 129,160 128,161 127,161 126,162 125,162 124,163 122,163 121,164 119,164 118,165 116,165 115,166 112,166 111,167 106,167 105,168 92,168 91,169 90,168 78,168 77,167 73,167 72,166 69,166 68,165 66,165 65,164 63,164 62,163 61,163 60,162 58,162 56,160 55,160 54,159 53,159 51,157 50,157 47,154 46,154 39,147 39,146 35,142 35,141 34,140 34,139 33,138 33,137 31,135 31,134 30,133 30,131 29,130 29,129 28,128 28,126 27,125 27,123 26,122 26,118 25,117 25,112 24,111 24,89 25,88 25,83 26,82 26,79 27,78 27,76 28,75 28,73 29,72 29,70 30,69 30,68 31,67 31,66 32,65 32,64 33,63 33,62 35,60 35,59 37,57 37,56 48,45 49,45 51,43 52,43 54,41 55,41 57,39 58,39 59,38 61,38 62,37 63,37 64,36 66,36 67,35 70,35 71,34 74,34 75,33 81,33 82,32 101,32 102,33 108,33 109,34 113,34 114,35 116,35 117,36 119,36 120,37 122,37 123,38 125,38 126,39 127,39 128,40 129,40 130,41 132,41 133,42 134,42 135,43 136,43 137,44 138,44 139,45 143,45 144,44 146,44 150,40 150,39 151,38 151,33 150,32 150,30 146,26 145,26 144,25 143,25 142,24 141,24 140,23 139,23 138,22 137,22 136,21 135,21 134,20 133,20 132,19 130,19 129,18 128,18 127,17 125,17 124,16 122,16 121,15 119,15 118,14 115,14 114,13 110,13 109,12 103,12 102,11" /></svg>