<?xml version="1.0" standalone="no"?>
<!DOCTYPE svg PUBLIC "-//W3C//DTD SVG 20010904//EN"
 "http://www.w3.org/TR/2001/REC-SVG-20010904/DTD/svg10.dtd">
<svg version="1.0" xmlns="http://www.w3.org/2000/svg"
 width="512.000000pt" height="512.000000pt" viewBox="0 0 512.000000 512.000000"
 preserveAspectRatio="xMidYMid meet">
<metadata>
Created by potrace 1.16, written by Peter Selinger 2001-2019
</metadata>
<g transform="translate(0.000000,512.000000) scale(0.100000,-0.100000)"
fill="#000000" stroke="none">
<path d="M2290 4448 c-303 -28 -663 -149 -901 -303 -212 -136 -410 -333 -557
-550 -223 -332 -335 -713 -333 -1130 2 -340 51 -560 182 -824 112 -227 230
-392 409 -571 358 -359 868 -593 1345 -617 457 -22 1002 174 1391 499 107 91
247 236 292 303 18 27 32 43 32 36 0 -7 5 -9 10 -6 15 9 12 34 -3 31 -7 -1
-51 -44 -97 -95 -101 -113 -211 -209 -345 -300 -112 -77 -179 -112 -311 -165
-106 -42 -116 -43 -106 -16 4 12 63 48 157 95 231 118 382 223 539 376 159
154 197 201 266 336 42 82 52 110 52 147 -1 41 2 48 23 56 21 8 25 16 25 50
l0 41 -25 -18 c-13 -10 -25 -23 -25 -29 0 -5 -5 -15 -12 -22 -9 -9 -17 -7 -34
9 -21 20 -24 20 -53 4 -18 -9 -62 -35 -99 -59 -37 -24 -95 -58 -129 -75 -49
-24 -67 -40 -81 -69 -20 -44 -78 -84 -217 -152 -101 -49 -282 -116 -290 -108
-3 2 7 57 20 122 14 65 32 177 41 249 8 72 16 133 18 134 1 2 30 7 64 11 l62
9 0 -27 c0 -23 -23 -124 -44 -195 -4 -11 3 -1 14 22 18 38 38 107 55 192 7 32
6 33 -21 27 -16 -3 -49 -8 -74 -11 l-45 -7 0 180 0 180 60 7 c61 7 211 31 253
40 21 5 22 3 12 -15 -14 -26 -5 -42 63 -109 39 -38 60 -52 72 -47 13 5 15 12
9 29 -4 12 -8 46 -8 74 -1 39 -5 52 -15 50 -7 -1 -19 7 -27 19 -14 20 -11 21
93 51 60 17 117 34 128 38 16 5 15 2 -6 -17 -19 -16 -28 -37 -33 -71 -8 -69
-22 -90 -52 -83 -30 8 -39 -10 -25 -47 9 -22 8 -27 -5 -27 -20 0 -15 -39 7
-53 11 -7 27 -2 60 18 24 16 39 30 32 32 -9 3 -9 12 -2 29 12 33 12 81 -1 89
-21 13 -9 24 15 13 16 -7 25 -19 25 -34 0 -59 49 -29 74 44 9 25 16 69 16 97
0 47 2 51 30 62 35 13 34 16 15 -78 -11 -52 -24 -81 -45 -106 -17 -19 -27 -39
-24 -45 11 -17 52 40 68 93 8 26 17 72 21 103 7 52 10 57 50 81 24 14 46 25
49 25 2 0 7 -24 11 -52 11 -90 -14 -264 -60 -413 -5 -16 1 -23 25 -33 16 -8
30 -18 30 -23 0 -14 -60 -40 -79 -34 -12 3 -29 -5 -50 -24 -17 -16 -31 -32
-31 -35 0 -15 71 11 124 45 39 27 56 33 51 21 -4 -9 -22 -74 -40 -143 -23 -85
-51 -161 -88 -235 -78 -157 -79 -179 -2 -39 73 132 139 288 173 408 54 191 65
227 70 223 8 -8 -28 -192 -54 -274 -13 -42 -22 -78 -20 -79 11 -11 74 203 103
352 22 112 25 477 5 600 -21 127 -64 278 -75 263 -6 -9 -7 -7 -3 6 7 19 -29
142 -46 161 -4 5 -3 -5 3 -23 6 -18 9 -35 6 -38 -8 -8 -49 107 -55 154 -16
136 -251 472 -458 657 -468 417 -1011 593 -1644 533z m240 -28 c0 -5 -7 -10
-15 -10 -8 0 -15 5 -15 10 0 6 7 10 15 10 8 0 15 -4 15 -10z m-115 -12 c-38
-5 -126 -17 -195 -28 -164 -25 -241 -33 -215 -21 61 26 284 58 405 58 l75 0
-70 -9z m430 -13 c97 -17 288 -76 268 -82 -7 -3 -54 10 -103 28 -105 37 -133
34 -33 -4 110 -41 35 -31 -95 13 -73 24 -159 45 -227 55 l-110 14 105 -4 c58
-3 146 -12 195 -20z m-349 -17 c3 -4 3 -30 -1 -58 -7 -50 -8 -51 -38 -48 -38
4 -46 24 -12 32 32 8 32 24 -1 32 -18 5 -34 0 -54 -15 -21 -15 -43 -21 -82
-21 l-53 1 30 16 c17 9 62 27 100 39 39 12 60 23 48 23 -12 1 -85 -19 -163
-44 -110 -34 -146 -42 -165 -35 -14 5 -25 12 -25 14 0 10 116 47 189 61 74 14
214 15 227 3z m157 -22 c98 -43 132 -65 120 -77 -5 -5 -49 -12 -96 -16 l-86
-6 -21 47 c-23 54 -26 86 -7 86 6 0 47 -16 90 -34z m131 8 c89 -23 167 -54
161 -65 -15 -24 -98 -8 -213 42 -116 50 -116 50 -62 44 30 -3 81 -13 114 -21z
m-225 -91 c1 -8 -11 -13 -29 -13 -26 0 -30 3 -26 23 3 12 8 40 12 62 l7 40 17
-50 c10 -27 19 -56 19 -62z m-614 12 c-89 -22 -263 -79 -273 -90 -10 -9 15 -5
58 10 86 31 62 13 -42 -29 -59 -24 -164 -76 -233 -116 -129 -73 -176 -88 -90
-28 108 75 141 117 49 63 -26 -15 -43 -22 -40 -16 9 13 232 127 327 166 35 14
89 31 119 36 30 6 75 14 100 18 98 18 115 9 25 -14z m1276 10 c87 -31 188 -85
200 -106 l11 -22 -28 20 c-45 31 -156 90 -184 98 -14 3 13 -15 60 -40 113 -62
150 -91 150 -118 0 -21 -1 -21 -23 6 -12 15 -79 58 -149 95 -71 38 -125 72
-121 75 10 11 37 8 84 -8z m-4 -65 c138 -71 172 -96 197 -143 23 -41 17 -61
-24 -82 -31 -16 -31 -16 -114 39 -106 70 -248 143 -303 158 -35 8 -43 15 -43
34 0 23 28 37 100 48 58 8 76 3 187 -54z m-1120 34 c56 -7 63 -24 10 -23 -44
1 -114 -8 -127 -16 -5 -3 -17 -2 -26 3 -19 10 -10 19 34 32 35 11 47 11 109 4z
m241 -3 c9 -5 -7 -10 -45 -13 -63 -6 -68 -5 -58 11 7 13 84 14 103 2z m513
-21 c10 -6 19 -21 19 -33 0 -14 13 -31 35 -46 43 -29 44 -41 6 -41 -29 0 -60
21 -129 84 l-33 31 28 6 c43 10 53 10 74 -1z m-483 -12 c-2 -7 -15 -21 -30
-33 -15 -11 -64 -53 -110 -92 -46 -40 -88 -73 -95 -73 -19 0 -25 18 -12 41 15
28 -4 41 -48 34 -18 -3 -33 -2 -33 3 0 11 34 22 73 22 23 0 27 3 22 23 -8 36
54 70 140 78 39 3 76 6 83 7 6 1 11 -3 10 -10z m155 2 c34 0 40 -4 53 -36 8
-19 17 -48 20 -63 6 -28 5 -28 -53 -35 -33 -4 -104 -26 -168 -52 -124 -52
-171 -62 -198 -42 -17 13 -10 21 88 98 59 45 116 96 128 112 19 26 27 29 57
24 19 -3 52 -6 73 -6z m257 -47 c67 -57 68 -58 42 -64 -15 -4 -49 -7 -77 -8
l-50 -1 -31 60 -31 59 26 4 c14 2 32 5 39 6 7 0 44 -25 82 -56z m-138 -9 c34
-60 34 -64 5 -64 -19 0 -26 9 -40 53 -20 64 -21 70 -4 65 6 -3 24 -27 39 -54z
m-537 26 c-3 -5 -18 -10 -33 -10 -21 0 -24 2 -12 10 20 13 53 13 45 0z m1408
-34 c47 -30 98 -76 72 -65 -53 23 -103 55 -118 75 -24 32 -17 30 46 -10z
m-1528 12 l26 -12 -23 -13 c-18 -10 -19 -12 -5 -13 20 0 24 -20 4 -20 -8 0
-22 -9 -32 -20 -21 -23 -98 -60 -125 -60 -10 0 -32 8 -48 17 -26 15 -30 22
-25 46 4 19 1 32 -8 38 -18 12 -66 2 -105 -22 -17 -10 -38 -19 -45 -18 -8 0
26 20 75 45 88 43 92 44 187 44 54 0 110 -5 124 -12z m1051 -14 c80 -35 238
-129 277 -164 l32 -29 -60 6 c-49 4 -70 12 -115 44 -30 22 -78 55 -106 75 -42
29 -105 94 -91 94 3 0 31 -12 63 -26z m499 -53 c58 -33 78 -54 73 -75 -4 -21
-137 62 -138 87 0 23 6 22 65 -12z m-428 -74 c3 -5 -18 3 -46 17 -28 15 -51
33 -51 42 0 11 12 7 46 -18 25 -18 48 -36 51 -41z m-1542 53 c-12 -19 -204
-142 -216 -138 -15 5 14 27 130 97 89 54 96 57 86 41z m1377 -31 l60 -41 -42
-22 -42 -21 -17 24 c-26 38 -59 71 -71 71 -7 0 -14 -9 -17 -21 -6 -20 -6 -20
-29 2 -20 19 -24 20 -24 6 0 -24 -16 -21 -35 5 -14 21 -14 23 2 30 10 3 49 7
86 7 64 1 72 -2 129 -40z m-332 16 c0 -8 -11 -17 -25 -20 -14 -3 -36 -7 -50
-10 -43 -9 -29 -31 28 -41 118 -21 12 -58 -143 -50 -58 3 -118 9 -135 14 l-30
10 60 27 c160 72 295 105 295 70z m63 8 c-7 -2 -21 -2 -30 0 -10 3 -4 5 12 5
17 0 24 -2 18 -5z m910 -73 c26 -23 47 -49 47 -58 0 -10 9 -33 19 -53 16 -30
18 -43 10 -79 -5 -24 -12 -47 -15 -52 -3 -5 -29 13 -58 40 -29 28 -80 64 -113
81 -65 32 -85 59 -58 76 52 31 65 47 65 81 0 34 0 34 28 20 15 -8 48 -33 75
-56z m187 -21 c141 -113 222 -203 247 -275 31 -85 36 -104 25 -104 -13 0 -145
137 -153 159 -4 9 -36 35 -71 58 -35 23 -84 60 -108 83 -45 41 -45 41 -15 37
l29 -5 -31 26 c-23 20 -33 39 -38 71 -9 52 -15 55 115 -50z m-2112 66 c17 -13
26 -13 43 -5 17 9 31 8 66 -5 42 -16 64 -16 133 0 24 6 24 6 -3 -10 -21 -12
-25 -20 -18 -32 7 -12 1 -27 -21 -54 -45 -56 -17 -82 39 -36 38 32 59 38 88
27 43 -16 17 -40 -117 -109 -119 -62 -238 -143 -238 -161 0 -5 -9 -14 -20 -20
-15 -8 -26 -7 -44 5 -22 15 -25 14 -55 -10 -35 -30 -60 -27 -90 11 l-19 25
-26 -28 c-33 -36 -33 -47 5 -81 40 -36 34 -61 -21 -85 -61 -26 -70 -23 -70 22
0 23 -8 48 -19 63 -12 14 -18 33 -15 45 6 21 62 53 92 53 27 0 44 21 31 37
-18 20 -2 100 23 117 32 23 41 9 16 -24 -18 -25 -19 -32 -8 -45 12 -14 72 -45
89 -45 7 0 61 83 61 93 0 4 -18 18 -39 33 -27 17 -42 36 -46 56 -4 18 -15 32
-26 35 -30 8 -23 19 35 62 114 84 135 92 174 66z m1036 -20 c3 -10 -3 -17 -20
-21 -33 -8 -44 4 -20 22 25 18 32 18 40 -1z m-580 -31 l80 -27 -55 -28 c-72
-37 -82 -37 -74 3 6 26 5 30 -9 25 -12 -5 -16 0 -16 18 0 14 -7 25 -17 28 -13
3 -14 5 -3 6 8 0 51 -11 94 -25z m734 -30 c17 -7 32 -16 32 -19 0 -3 -3 -4 -7
-2 -5 3 -34 10 -66 17 -31 6 -55 16 -52 21 7 10 42 4 93 -17z m-467 -35 l108
-12 -55 -61 c-31 -33 -88 -109 -127 -168 -65 -99 -73 -107 -96 -101 -72 17
-257 76 -307 98 l-58 26 39 26 c21 15 75 42 119 60 45 19 87 37 94 40 6 3 12
11 12 17 0 7 -6 18 -12 25 -8 8 -9 15 -3 17 6 3 33 17 60 32 40 23 57 27 84
21 19 -4 83 -13 142 -20z m714 1 c22 -25 61 -23 59 2 -2 16 1 16 27 2 16 -8
41 -32 55 -54 15 -22 30 -40 35 -40 5 0 6 -7 3 -15 -5 -11 1 -15 18 -15 30 0
52 -24 111 -120 47 -77 117 -236 117 -266 0 -13 -7 -15 -37 -11 -21 2 -71 -4
-112 -14 -41 -11 -77 -17 -80 -14 -3 3 -20 46 -37 95 -49 138 -138 284 -241
393 -32 34 -39 47 -31 60 14 25 89 23 113 -3z m-366 -27 c5 -21 32 -125 60
-232 29 -106 50 -195 48 -197 -3 -3 -153 20 -206 32 l-24 5 6 140 c4 78 12
169 18 204 9 55 14 65 37 74 44 16 51 13 61 -26z m130 -8 c38 -19 60 -19 82 1
17 16 21 14 64 -32 103 -111 229 -333 259 -455 7 -33 -1 -37 -94 -45 -58 -6
-72 -4 -97 13 -39 27 -100 50 -155 58 -56 8 -51 -2 -123 280 -26 99 -48 187
-51 196 -4 14 1 15 41 8 24 -5 58 -15 74 -24z m463 25 c62 -18 71 -70 12 -70
-23 0 -64 42 -64 66 0 17 4 17 52 4z m-1282 -4 c0 -3 -4 -8 -10 -11 -5 -3 -10
-1 -10 4 0 6 5 11 10 11 6 0 10 -2 10 -4z m575 -28 c-9 -43 -25 -230 -25 -303
l0 -73 -72 14 c-164 30 -238 48 -238 56 0 33 152 254 204 297 17 14 69 28 114
30 18 1 21 -3 17 -21z m-1265 -32 c0 -7 10 -21 23 -30 19 -14 19 -16 3 -14
-14 2 -19 -5 -22 -30 -5 -46 -23 -77 -36 -64 -8 8 -7 20 2 42 16 39 10 45 -34
30 -34 -11 -96 -70 -96 -91 0 -11 35 5 45 21 10 15 28 12 22 -4 -3 -8 1 -20 9
-27 12 -10 6 -15 -37 -33 -38 -15 -57 -31 -73 -58 -29 -51 -13 -59 28 -15 19
20 37 37 41 37 10 0 -15 -31 -39 -49 -12 -9 -14 -16 -7 -21 8 -5 6 -20 -8 -54
-18 -40 -19 -48 -6 -53 24 -8 43 14 51 60 5 34 8 38 15 22 4 -11 8 -39 8 -61
l1 -42 65 6 c36 2 65 2 65 -1 0 -3 -29 -29 -65 -57 -64 -51 -66 -52 -85 -35
-12 10 -20 31 -20 48 0 28 -1 29 -17 15 -23 -20 -83 -15 -100 8 -10 14 -25 17
-63 15 -47 -2 -50 -1 -50 22 0 14 -8 39 -17 56 -17 28 -17 33 -2 58 12 22 22
27 42 25 21 -2 29 3 37 23 13 35 23 32 15 -5 -12 -54 21 -35 59 34 20 36 48
78 61 95 29 33 18 52 -11 19 -19 -21 -83 -53 -91 -45 -2 3 19 25 48 50 37 32
67 49 103 58 28 6 60 19 71 29 34 29 65 37 65 16z m660 -11 c-13 -14 -60 -49
-103 -76 -70 -45 -82 -50 -104 -40 -13 6 -21 16 -18 21 8 13 215 119 234 119
10 1 7 -7 -9 -24z m1573 -88 c45 -38 103 -86 129 -108 l48 -40 -30 -58 c-31
-62 -74 -105 -127 -128 -52 -21 -60 -17 -79 40 -20 63 -89 201 -138 277 -19
30 -32 56 -28 57 4 1 19 4 33 7 14 3 31 17 37 31 l12 26 31 -18 c17 -10 67
-49 112 -86z m182 63 l20 -22 -38 18 c-20 10 -37 24 -37 31 0 17 27 4 55 -27z
m10 -46 c27 -11 36 -50 23 -99 -7 -25 -15 -45 -19 -45 -4 0 -29 19 -55 43 -49
45 -54 74 -10 57 32 -12 39 -2 21 27 -14 21 -14 23 4 23 11 0 27 -3 36 -6z
m76 -21 c69 -56 99 -86 180 -179 49 -56 89 -108 89 -116 0 -20 -53 -80 -88
-101 l-30 -17 -56 77 c-30 43 -74 101 -96 130 l-42 52 11 52 c6 28 9 67 5 85
-7 39 -3 41 27 17z m239 -116 c16 -33 30 -74 30 -91 -1 -27 -2 -29 -11 -12 -6
10 -26 56 -44 103 -37 94 -22 95 25 0z m-2208 39 c46 -19 143 -53 215 -76
l133 -41 -16 -37 c-9 -20 -27 -71 -41 -112 -13 -41 -26 -81 -28 -87 -9 -25
-457 149 -480 186 -7 12 16 51 29 51 5 0 31 14 58 31 35 23 48 37 48 54 0 13
-4 27 -10 30 -13 8 -13 35 0 35 5 0 47 -15 92 -34z m-142 -10 c0 -14 -29 -31
-38 -21 -6 6 18 35 29 35 5 0 9 -6 9 -14z m-800 -78 c0 -11 -7 -18 -17 -18
-10 0 -33 -17 -50 -37 -42 -48 -32 -14 15 53 26 36 36 44 43 33 5 -8 9 -22 9
-31z m3270 -100 c73 -109 189 -339 224 -446 53 -159 71 -309 42 -361 -13 -23
-13 -22 -20 20 -3 24 -32 145 -62 269 -63 253 -114 383 -200 512 -49 74 -62
98 -50 98 3 0 32 -41 66 -92z m-320 -15 c36 -45 73 -95 83 -112 l18 -31 -66
-31 c-36 -17 -67 -30 -69 -28 -1 2 -17 38 -35 79 -18 41 -39 83 -46 93 -11 16
-10 26 8 68 12 26 27 47 32 46 6 -2 39 -40 75 -84z m-1446 37 c76 -15 142 -32
146 -37 4 -4 13 -41 19 -81 7 -40 24 -93 37 -118 13 -25 24 -47 24 -50 0 -13
-104 -1 -141 16 -24 11 -64 20 -89 20 -41 0 -180 23 -224 36 -16 5 -17 13 -11
59 6 51 22 111 44 169 9 23 16 27 34 22 12 -4 84 -20 161 -36z m-814 14 c0 -3
-25 -68 -56 -145 -63 -160 -114 -311 -141 -416 l-19 -71 -59 20 c-33 11 -61
21 -63 23 -1 1 -7 29 -12 61 -5 33 -17 75 -26 95 -15 35 -15 38 6 66 16 23 21
41 18 78 l-3 48 75 54 c73 51 100 63 100 43 0 -5 7 -7 15 -3 9 3 21 -2 29 -12
12 -16 14 -16 34 9 23 31 19 56 -9 56 -10 0 -19 7 -19 15 0 19 -9 19 -32 -2
-10 -9 -21 -14 -24 -11 -11 12 101 86 136 91 19 2 38 5 43 5 4 1 7 -1 7 -4z
m94 -85 c42 -22 76 -43 76 -46 0 -3 -22 -44 -49 -92 -55 -96 -93 -176 -157
-331 -40 -100 -44 -105 -71 -104 -15 1 -41 7 -57 13 -26 10 -28 14 -21 49 16
86 185 552 200 552 2 0 38 -18 79 -41z m1126 -6 c4 -4 12 -27 19 -51 8 -30 19
-46 36 -52 22 -8 224 7 336 25 l36 6 12 -76 c14 -99 16 -93 -22 -109 -18 -7
-41 -25 -50 -40 -27 -41 -108 -33 -156 16 -38 39 -113 58 -231 58 -52 0 -104
3 -115 6 -38 10 -95 144 -95 224 l0 37 111 -18 c62 -10 115 -21 119 -26z
m-1936 8 c3 -5 -18 -36 -47 -68 -53 -59 -54 -60 -75 -43 l-21 18 22 33 c31 46
107 84 121 60z m2849 -9 c16 -18 81 -161 75 -167 -15 -15 -329 -75 -394 -75
-10 0 -2 48 15 87 22 48 59 76 94 71 14 -1 33 5 44 14 19 17 134 87 144 88 3
0 13 -8 22 -18z m-764 -37 c24 -8 51 -21 59 -27 20 -17 -8 -26 -85 -27 -53 -1
-64 2 -77 21 -9 12 -16 32 -16 44 0 20 3 21 38 13 20 -4 57 -15 81 -24z m1208
-92 c36 -77 42 -120 18 -129 -9 -4 -15 -19 -16 -38 l0 -31 -17 25 c-9 14 -50
60 -89 104 -40 43 -73 82 -73 85 0 3 16 17 36 31 20 13 43 35 52 48 l16 24 19
-23 c11 -13 35 -56 54 -96z m-3315 50 c-21 -32 -63 -102 -93 -155 -50 -90 -69
-115 -69 -88 0 30 98 199 142 247 28 29 53 53 55 53 2 0 -14 -26 -35 -57z
m2568 43 c0 -2 -16 -28 -36 -57 -32 -49 -36 -59 -31 -101 l6 -48 -38 0 -38 0
-13 77 c-6 42 -14 82 -16 88 -3 6 24 17 63 26 71 17 103 22 103 15z m749 -18
c32 -50 71 -140 77 -176 4 -29 2 -43 -11 -55 -14 -14 -15 -23 -6 -49 11 -32
16 -136 5 -126 -3 4 -10 39 -15 79 -5 40 -12 82 -15 94 -4 14 -3 16 4 7 7 -11
11 -9 15 8 6 22 -27 118 -63 190 -11 22 -20 42 -20 45 0 13 16 3 29 -17z
m-3254 1 c4 -6 13 -8 21 -5 7 3 16 1 19 -4 3 -5 16 -5 30 2 18 8 31 8 49 0
l25 -11 -35 -37 c-49 -54 -43 -70 9 -25 17 14 20 14 33 -4 8 -10 14 -27 14
-36 0 -10 7 -25 16 -34 13 -12 19 -13 30 -4 11 9 18 9 25 2 8 -8 4 -23 -12
-51 l-23 -39 18 -73 c9 -40 15 -74 12 -77 -2 -3 -58 6 -123 19 -138 28 -133
18 -69 151 23 49 39 90 34 93 -4 3 -31 -44 -60 -104 l-53 -109 -67 23 c-37 12
-72 25 -78 29 -11 7 29 85 114 223 51 83 59 91 71 71z m1037 -53 c76 -28 138
-56 138 -63 0 -8 -19 -11 -59 -10 -66 2 -101 -18 -101 -58 0 -27 13 -39 62
-54 21 -7 40 -16 43 -21 5 -8 -79 -348 -89 -357 -9 -9 -384 73 -400 88 -12 11
34 139 105 289 83 175 130 251 149 244 8 -4 77 -30 152 -58z m2042 -57 c22
-26 24 -34 14 -47 -11 -13 -10 -14 13 -9 16 4 33 1 45 -8 16 -13 16 -14 2 -9
-25 9 -23 -22 2 -43 12 -10 20 -30 20 -48 0 -19 -7 -35 -20 -43 -26 -16 -25
-36 4 -75 13 -18 32 -56 41 -85 21 -62 17 -69 -51 -95 l-42 -16 -41 70 c-33
55 -96 214 -147 369 -4 11 12 23 53 42 32 14 63 26 70 27 6 1 23 -13 37 -30z
m-1723 -30 c86 -12 88 -16 29 -49 -20 -11 -140 39 -140 58 0 8 6 12 14 9 8 -3
51 -11 97 -18z m1550 -21 c7 -13 36 -92 65 -176 42 -122 49 -154 38 -159 -8
-3 -14 -10 -14 -17 0 -6 -8 -26 -18 -45 -16 -29 -23 -33 -64 -36 -57 -3 -71
-11 -63 -36 4 -10 2 -26 -3 -35 -10 -18 -14 -14 -37 31 -6 11 -23 21 -38 23
-21 3 -29 11 -35 35 -8 29 -12 32 -48 32 -60 0 -66 8 -58 74 8 70 1 84 -77
169 -33 34 -59 69 -59 76 0 13 69 26 140 26 l35 -1 -24 -19 c-14 -13 -21 -26
-17 -36 5 -14 16 -15 64 -9 71 9 79 13 112 61 23 34 61 63 82 64 4 0 13 -10
19 -22z m-1401 -48 c0 -10 -4 -22 -10 -25 -5 -3 -10 3 -10 14 0 11 -4 23 -10
26 -20 12 -10 26 10 15 11 -6 20 -19 20 -30z m1264 25 c-7 -16 -44 -21 -44 -6
0 8 16 16 42 20 4 0 5 -6 2 -14z m-3002 -62 c-16 -32 -41 -88 -57 -126 -15
-37 -30 -66 -31 -64 -2 2 8 39 21 83 21 69 74 164 90 164 3 0 -8 -26 -23 -57z
m2241 37 c38 -9 62 -20 68 -33 15 -27 87 -57 141 -57 39 0 50 4 70 29 13 16
33 32 44 35 18 6 22 1 28 -31 3 -21 6 -55 6 -77 0 -38 0 -38 -34 -32 -29 6
-37 3 -50 -16 -16 -22 -34 -26 -146 -28 -84 -2 -169 25 -237 76 -17 13 -36 24
-42 24 -26 0 -5 -21 69 -70 44 -29 80 -58 80 -65 0 -7 -14 -25 -32 -40 l-32
-27 -13 25 c-7 14 -38 40 -69 58 -31 18 -72 45 -90 61 -33 29 -33 29 -13 49
10 10 19 28 19 38 0 38 11 51 45 51 19 0 37 5 41 11 8 14 66 39 79 35 6 -2 36
-9 68 -16z m-374 -89 c39 -30 69 -56 67 -59 -9 -8 -130 54 -158 81 -18 16 -26
32 -22 42 7 18 -1 23 113 -64z m821 50 c0 -23 10 -36 50 -65 102 -73 113 -130
44 -221 -24 -33 -52 -81 -62 -107 -9 -27 -19 -48 -22 -48 -3 0 -13 18 -23 40
-10 22 -38 64 -63 93 -24 30 -44 62 -44 72 0 9 11 30 24 45 22 27 23 35 19
124 l-5 96 41 0 c39 0 41 -2 41 -29z m-1211 -25 c21 -12 29 -33 57 -157 18
-79 35 -156 39 -171 7 -27 6 -28 -31 -28 -21 0 -52 -5 -69 -11 -23 -9 -49 -8
-103 1 -40 6 -72 15 -72 19 0 10 59 249 76 309 14 49 17 52 47 52 18 -1 43 -7
56 -14z m351 -64 c20 -11 57 -26 84 -32 35 -8 66 -26 119 -72 85 -72 93 -84
76 -104 -20 -24 -159 -16 -189 11 -42 37 -180 228 -180 248 0 20 1 19 28 -5
15 -13 43 -34 62 -46z m-1831 -12 c-24 -64 -55 -181 -64 -242 -8 -50 -11 -54
-35 -38 -12 8 -12 18 -1 72 16 81 90 258 106 258 10 0 8 -13 -6 -50z m3686
-154 c52 -219 53 -231 19 -268 -31 -32 -74 -58 -97 -58 -11 0 -17 32 -26 136
-7 74 -10 153 -6 174 4 24 2 47 -6 62 -11 21 -11 22 4 10 22 -18 35 9 44 90
l6 63 14 -34 c8 -19 29 -97 48 -175z m-3559 164 l71 -23 -20 -56 c-10 -31 -30
-107 -43 -170 -13 -62 -25 -116 -28 -118 -5 -5 -122 32 -144 46 -11 7 -12 22
-2 87 16 104 68 267 83 261 7 -2 44 -15 83 -27z m3354 -76 c-6 -29 -15 -54
-19 -54 -4 0 -17 20 -29 45 l-22 46 27 34 28 35 13 -26 c10 -20 11 -36 2 -80z
m-1839 70 c9 -2 36 -32 59 -65 23 -33 61 -78 83 -100 48 -46 47 -46 -93 -21
l-95 17 -17 52 c-10 29 -21 71 -24 94 l-7 42 39 -7 c21 -4 46 -9 55 -12z
m-1310 -44 c142 -28 149 -32 149 -75 0 -39 -16 -75 -62 -142 -29 -43 -29 -43
-90 -43 -60 0 -63 -1 -103 -45 -32 -34 -47 -43 -63 -38 -17 4 -22 13 -22 39 0
65 64 324 80 324 4 0 54 -9 111 -20z m3185 -133 c-14 -10 -26 -27 -26 -38 0
-23 13 -25 30 -4 27 33 38 -9 49 -188 l6 -112 29 0 c18 -1 34 -9 43 -22 13
-19 10 -22 -57 -57 l-70 -37 0 75 c0 78 -6 106 -22 106 -5 0 -14 -13 -19 -30
-6 -16 -15 -28 -19 -25 -14 9 -22 -14 -15 -45 4 -17 13 -30 21 -30 8 0 14 -6
14 -14 0 -8 3 -23 6 -33 5 -16 4 -16 -10 1 -9 11 -17 16 -17 10 -1 -5 -2 -16
-3 -24 0 -8 -8 -16 -16 -18 -20 -4 -74 262 -58 288 8 12 5 29 -11 64 -25 57
-25 56 -8 56 7 0 30 9 52 20 21 11 40 18 42 16 2 -1 9 -51 15 -109 7 -59 16
-107 20 -107 5 0 7 15 4 33 -3 17 -10 72 -17 120 l-11 89 27 28 c16 17 29 44
33 71 l7 44 3 -55 c3 -49 1 -56 -22 -73z m-3639 91 c-3 -8 -6 -5 -6 6 -1 11 2
17 5 13 3 -3 4 -12 1 -19z m2563 -26 c0 -11 -9 -27 -19 -36 -34 -31 -58 6 -25
38 21 22 44 20 44 -2z m-2573 -14 c-3 -8 -6 -5 -6 6 -1 11 2 17 5 13 3 -3 4
-12 1 -19z m946 -100 c-1 -7 -15 -74 -31 -148 -27 -130 -30 -135 -52 -132 -39
6 -224 63 -234 72 -15 15 15 182 40 222 13 20 26 48 30 61 l6 25 121 -43 c79
-28 121 -48 120 -57z m-944 21 c0 8 3 12 6 9 3 -3 3 -13 -1 -22 -11 -28 -24
-7 -23 37 l2 42 7 -40 c4 -22 8 -34 9 -26z m2424 15 c-10 -39 -37 -100 -46
-106 -7 -4 -75 -8 -152 -8 -89 0 -135 4 -125 10 8 5 51 9 96 8 96 0 127 13
174 72 18 23 37 39 44 37 6 -3 10 -8 9 -13z m-503 -34 c41 -6 76 -12 77 -14 2
-2 -2 -26 -8 -55 -12 -57 -9 -56 -109 -40 -71 11 -99 34 -100 80 0 32 18 50
44 44 12 -2 55 -9 96 -15z m731 -14 c7 -14 9 -35 5 -48 -7 -27 -133 -165 -142
-155 -3 3 -3 42 1 86 l7 81 52 29 c64 36 64 36 77 7z m758 -18 c-29 -11 -33
-5 -18 23 11 22 12 22 26 4 12 -17 11 -20 -8 -27z m-2214 -13 c94 -20 177 -41
185 -45 8 -4 14 -18 13 -31 0 -13 -4 -73 -8 -134 -10 -180 -1 -161 -127 -255
-62 -46 -127 -89 -145 -96 -34 -15 -128 -18 -183 -7 l-33 6 5 139 c3 76 7 140
9 143 2 2 67 -7 144 -20 199 -34 219 -29 33 8 -86 18 -160 36 -164 40 -9 8 6
109 33 225 16 70 18 73 43 69 14 -2 102 -21 195 -42z m1830 -15 c-29 -12 -98
-12 -90 0 3 6 30 10 58 9 38 0 47 -3 32 -9z m439 -53 c50 -117 81 -322 54
-345 -15 -11 -188 -62 -212 -62 -9 0 -16 8 -16 18 0 9 -11 41 -25 71 -28 59
-26 74 4 47 28 -26 56 -6 76 53 9 27 23 55 31 61 19 16 18 86 -1 141 -22 60
-16 69 51 78 6 0 23 -28 38 -62z m-3485 -66 c-8 -72 -16 -108 -22 -102 -9 9 8
195 20 214 13 21 13 -9 2 -112z m83 19 c8 -70 23 -97 44 -79 18 15 17 39 -1
63 -15 20 -20 56 -8 56 4 0 37 -10 75 -22 76 -25 72 -15 62 -140 l-7 -74 -76
1 c-47 2 -93 9 -120 20 l-43 18 6 86 c4 47 10 103 13 124 5 36 7 37 27 24 16
-11 23 -29 28 -77z m543 15 l-8 -57 -31 7 c-17 3 -58 12 -91 19 l-60 13 64 5
c58 4 67 8 95 39 17 20 32 34 34 33 2 -1 0 -28 -3 -59z m2471 40 c9 -14 26
-25 39 -25 14 0 26 -9 33 -25 16 -34 15 -127 0 -161 -11 -23 -10 -28 7 -40 26
-20 35 -17 35 9 0 12 5 29 10 37 7 11 9 0 8 -37 0 -44 -4 -53 -19 -53 -32 0
-32 -21 -1 -80 l30 -58 -27 -7 c-53 -13 -296 -43 -302 -36 -4 3 -14 33 -23 66
-31 113 -69 206 -78 197 -6 -6 3 -51 25 -118 54 -166 53 -151 10 -158 -54 -9
-214 -26 -239 -26 -21 0 -22 5 -26 139 -2 77 -6 143 -10 146 -3 4 -23 -2 -45
-13 -21 -11 -64 -25 -96 -32 -58 -12 -77 -28 -77 -69 0 -25 29 -35 80 -26 43
7 60 22 86 79 36 76 44 59 44 -88 0 -133 -1 -136 -22 -140 -39 -9 -394 -36
-462 -36 -47 0 -67 4 -77 17 -8 9 -33 25 -56 35 -48 21 -53 27 -63 75 -7 29
-4 39 20 66 56 64 230 300 230 312 0 6 -9 20 -20 30 -11 10 -20 21 -20 24 0 3
74 6 163 6 l163 1 13 -36 c8 -19 16 -71 20 -115 6 -78 7 -80 33 -83 52 -6 126
61 214 197 28 43 28 43 45 23 9 -12 28 -60 43 -107 17 -53 32 -85 39 -83 7 2
35 50 62 105 l50 101 45 4 c97 9 99 9 116 -17z m-1493 -19 c70 -13 130 -26
133 -29 3 -3 -1 -14 -10 -24 -9 -10 -29 -32 -44 -50 -15 -17 -80 -66 -144
-107 l-118 -76 0 33 c0 42 20 248 25 265 6 16 9 16 158 -12z m1737 -66 c0 -14
-5 -32 -10 -40 -9 -13 -14 -11 -34 12 -22 24 -23 30 -13 68 l12 42 22 -29 c13
-15 23 -39 23 -53z m-1346 40 c13 -13 -27 -88 -78 -145 -24 -27 -46 -48 -49
-45 -2 3 -16 43 -30 90 -25 80 -25 85 -9 103 15 17 26 18 87 12 38 -3 74 -10
79 -15z m1963 -2 c-3 -8 -6 -5 -6 6 -1 11 2 17 5 13 3 -3 4 -12 1 -19z m16
-98 c3 -46 2 -63 -3 -45 -8 30 -13 132 -6 124 2 -2 6 -38 9 -79z m-3654 63 c0
-5 -8 -39 -19 -78 l-18 -70 -1 78 c-1 71 1 77 19 77 11 0 20 -3 19 -7z m206
-14 l84 -21 -6 -147 c-3 -80 -7 -147 -8 -149 -6 -6 -92 20 -192 60 l-103 39
25 22 c17 15 28 39 35 75 13 72 45 142 65 142 9 0 54 -10 100 -21z m3423 -189
c0 -69 -3 -138 -7 -155 -6 -28 -9 -24 -40 53 -18 45 -37 85 -42 88 -20 12 -8
61 22 90 17 16 35 38 41 49 6 11 -9 2 -32 -20 -23 -22 -38 -31 -32 -20 6 11
19 28 30 38 11 10 26 33 33 50 l14 32 7 -40 c4 -22 7 -96 6 -165z m-2175 133
c45 -142 48 -158 31 -198 -13 -31 -14 -49 -5 -97 l10 -59 -80 -107 c-106 -143
-132 -172 -157 -172 -24 0 -28 12 -43 157 -9 87 -9 139 1 230 6 65 14 121 16
125 2 3 40 32 84 62 43 31 87 67 97 80 10 14 21 26 25 26 3 0 13 -21 21 -47z
m-995 -14 l124 -34 -6 -35 c-4 -19 -9 -86 -13 -148 -5 -96 -8 -112 -22 -108
-9 3 -36 10 -61 16 -25 6 -75 20 -112 31 l-68 20 0 82 c0 122 11 218 24 214 6
-3 66 -20 134 -38z m-785 -166 c4 -65 9 -136 13 -158 6 -37 5 -39 -10 -24 -14
13 -18 43 -23 164 -4 98 -3 146 4 142 5 -3 13 -59 16 -124z m159 62 c25 -3 61
-16 80 -28 28 -19 33 -29 35 -67 4 -63 21 -219 29 -260 7 -33 7 -33 -26 -27
-18 4 -75 27 -126 51 -67 32 -97 52 -103 68 -11 30 -31 188 -31 249 l0 47 48
-13 c26 -8 68 -16 94 -20z m1351 -182 c-3 -105 1 -188 10 -247 l13 -88 -48 4
c-27 3 -52 8 -56 12 -9 9 -16 370 -8 403 5 19 69 73 87 73 4 0 4 -71 2 -157z
m-999 42 l91 -33 11 -113 c23 -226 71 -403 147 -537 39 -70 199 -252 264 -301
69 -51 173 -77 190 -46 7 12 23 12 107 3 l98 -12 39 -79 c22 -43 39 -81 36
-83 -2 -2 -50 8 -106 21 -118 29 -293 95 -345 130 -27 18 -36 21 -36 10 0 -21
30 -38 159 -90 109 -43 287 -95 329 -95 15 0 41 -33 96 -120 42 -66 76 -123
76 -128 0 -5 -39 -12 -87 -15 l-87 -6 -56 41 c-231 174 -422 340 -525 458
l-48 55 34 -48 c50 -73 204 -216 402 -374 107 -86 170 -143 158 -143 -11 0
-47 -9 -81 -19 l-63 -20 -41 31 c-22 16 -93 62 -157 101 -63 40 -147 96 -186
125 -99 73 -236 220 -311 332 -54 80 -134 232 -155 291 -4 11 38 -4 133 -47
153 -70 195 -84 188 -64 -2 7 -40 27 -83 45 -44 17 -121 53 -171 78 -91 46
-91 46 -112 104 -28 75 -75 253 -69 260 3 2 40 -5 82 -17 109 -31 114 -20 5
15 -50 16 -93 32 -96 36 -9 15 -34 216 -34 276 l0 62 57 -26 c31 -14 97 -41
147 -58z m3416 -66 c12 -33 11 -41 -10 -83 -19 -41 -86 -103 -98 -91 -2 2 3
35 12 74 9 39 19 112 23 163 l6 93 27 -60 c15 -34 33 -77 40 -96z m-290 108
c0 -13 -13 -36 -30 -52 -32 -31 -40 -24 -14 13 8 12 12 27 8 33 -3 6 0 15 7
20 22 14 29 11 29 -14z m-2240 -201 l0 -204 -42 9 c-23 6 -61 23 -85 39 -63
43 -95 58 -145 69 -52 12 -112 -1 -126 -26 -23 -40 -51 7 -66 112 l-5 40 80
-4 c135 -6 155 1 276 89 59 44 109 80 111 80 1 0 2 -92 2 -204z m-651 90 c47
-14 98 -27 114 -30 20 -5 27 -12 27 -31 0 -62 24 -179 40 -195 16 -16 13 -18
-64 -29 -44 -6 -96 -11 -115 -11 -19 0 -42 -7 -52 -16 -15 -14 -18 -12 -28 33
-14 63 -28 161 -36 247 -5 61 -4 68 11 62 9 -4 56 -17 103 -30z m2155 -88 c7
-66 6 -187 -2 -252 l-7 -50 -110 -22 c-149 -30 -94 -29 78 1 22 4 27 1 27 -15
0 -14 -8 -19 -37 -22 -36 -3 -37 -5 -80 -101 -51 -112 -58 -152 -28 -152 14 0
33 20 60 62 70 108 66 106 60 28 -5 -65 -49 -302 -57 -311 -8 -7 -125 -34
-193 -44 -38 -5 -175 -10 -304 -10 -208 0 -232 2 -227 16 3 9 6 20 6 25 0 5
10 7 23 4 17 -5 40 7 92 47 101 76 157 138 198 215 33 64 35 70 22 101 -8 17
-18 32 -22 32 -5 0 -27 -18 -48 -40 -21 -22 -43 -40 -48 -40 -5 0 -7 17 -3 39
4 29 2 42 -10 52 -14 11 -22 6 -59 -36 -30 -35 -45 -61 -47 -85 -3 -33 -6 -35
-40 -38 -21 -2 -38 1 -38 5 0 5 16 33 36 63 67 102 81 137 110 278 5 24 40 30
75 12 11 -6 24 -8 29 -5 16 10 -1 35 -24 35 -50 0 -66 11 -66 45 0 41 -18 61
-63 69 -31 6 -97 60 -86 71 7 6 440 47 446 41 6 -6 -15 -145 -33 -214 -8 -30
-12 -57 -10 -59 7 -8 35 94 51 186 9 47 17 87 20 89 5 5 207 28 266 31 l36 1
7 -52z m-2880 0 c35 -163 41 -226 18 -181 -12 22 -42 154 -42 182 0 28 18 27
24 -1z m216 -88 l75 -28 14 -58 c7 -33 24 -97 37 -144 12 -46 21 -86 19 -88
-7 -7 -130 60 -192 104 -35 25 -69 58 -74 72 -10 27 -41 140 -53 195 l-7 28
53 -27 c29 -15 87 -39 128 -54z m1910 -16 l92 -76 -7 -51 c-14 -102 -37 -162
-98 -265 l-62 -105 -148 5 c-81 3 -149 7 -152 10 -3 2 -8 92 -12 200 l-6 195
62 74 c67 80 76 84 193 87 44 2 51 -2 138 -74z m-982 -98 c49 -25 60 -46 60
-116 1 -36 10 -96 21 -135 30 -100 31 -98 -34 -90 -68 8 -239 47 -367 82 l-97
27 -20 54 c-12 30 -21 69 -21 87 0 38 14 45 124 64 82 15 121 14 136 -4 20
-24 47 -18 72 15 18 24 29 30 60 30 22 0 51 -6 66 -14z m-1069 -126 c18 -52
55 -142 82 -200 27 -58 42 -96 33 -85 -41 52 -164 339 -164 383 0 31 17 -3 49
-98z m1645 -79 l7 -183 -53 6 c-29 3 -87 8 -128 10 -101 7 -29 -10 88 -20 45
-4 85 -11 88 -15 3 -5 9 -47 14 -94 5 -47 12 -105 16 -130 l6 -46 -133 7
c-198 10 -213 13 -217 49 -2 16 -28 125 -58 242 -57 226 -64 279 -38 318 21
32 50 31 139 -4 80 -33 99 -61 41 -61 -39 0 -50 -22 -18 -38 52 -28 77 -24
132 19 28 22 64 60 79 84 14 24 27 42 27 41 1 0 5 -84 8 -185z m-1492 34 c48
-34 107 -72 132 -86 36 -19 48 -33 62 -69 50 -132 178 -338 284 -452 34 -38
58 -68 54 -68 -4 0 -59 34 -123 76 -85 56 -147 108 -231 193 -162 164 -184
200 -288 470 -7 17 -4 16 110 -64z m3421 -118 c-5 -74 -10 -88 -44 -139 -51
-74 -64 -83 -53 -32 5 21 9 69 9 105 0 63 2 68 40 111 22 24 43 43 47 41 4 -2
5 -41 1 -86z m-3273 47 c0 -2 -13 2 -30 11 -16 9 -30 18 -30 21 0 2 14 -2 30
-11 17 -9 30 -18 30 -21z m3336 -38 c-4 -18 -13 -41 -22 -52 -14 -18 -15 -15
-9 40 3 32 8 63 12 69 11 18 25 -24 19 -57z m-2926 -46 c22 -44 38 -80 36 -80
-6 0 -62 99 -75 133 -20 52 -1 26 39 -53z m62 44 c25 -8 127 -32 228 -52 l182
-37 42 -108 c24 -59 53 -118 65 -130 11 -13 21 -27 21 -31 0 -5 -45 -5 -100
-1 -73 5 -100 4 -100 -4 0 -14 -57 -6 -108 15 -39 16 -140 110 -187 174 -53
73 -115 190 -101 190 7 0 33 -7 58 -16z m2697 -95 c1 -39 -58 -168 -107 -236
-18 -23 -41 -43 -54 -45 -35 -5 -18 -23 20 -22 l33 1 -23 -24 c-41 -45 -196
-171 -272 -222 -94 -64 -240 -141 -339 -180 -43 -17 -81 -31 -85 -31 -4 0 18
16 48 37 120 80 296 243 397 368 22 28 81 113 131 190 86 133 94 142 164 186
80 50 86 48 87 -22z m-1284 -29 c7 -11 -47 -70 -64 -70 -23 0 -20 22 8 50 31
32 46 37 56 20z m-282 -7 l67 -6 0 -84 c0 -46 -5 -94 -11 -105 -8 -15 -8 -22
1 -28 8 -5 9 -16 5 -30 -7 -22 -8 -23 -128 -16 -67 4 -124 9 -128 12 -3 2 -12
48 -18 101 -7 54 -14 113 -17 131 l-5 32 83 0 c46 0 113 -3 151 -7z m137 -9
c0 -3 -9 -17 -20 -31 l-20 -26 0 32 c0 24 4 31 20 31 11 0 20 -3 20 -6z m1170
-40 c0 -26 -71 -153 -125 -226 -120 -160 -300 -327 -447 -415 -46 -28 -224
-80 -236 -69 -1 2 14 13 34 25 l36 22 -27 21 -28 21 59 30 c32 16 81 53 108
82 56 57 124 178 151 265 l17 56 95 33 c99 35 239 101 308 145 47 30 55 31 55
10z m-2715 -280 c50 -34 122 -79 161 -100 39 -22 117 -74 173 -116 56 -42 146
-104 200 -137 54 -33 106 -69 115 -80 17 -19 17 -20 -3 -30 -17 -9 -40 -3
-133 39 -162 73 -328 162 -406 217 -81 58 -221 195 -286 281 -43 57 -126 186
-126 196 0 2 48 -44 108 -102 59 -59 148 -135 197 -168z m2223 49 c-37 -143
-150 -293 -257 -346 -48 -24 -67 -27 -151 -27 -94 0 -97 1 -109 26 -14 31 -42
29 -56 -4 -11 -24 -29 -27 -134 -16 l-61 7 0 62 c0 38 5 66 13 72 6 6 66 13
132 16 112 6 251 25 242 33 -2 2 -41 -1 -88 -6 -46 -4 -131 -12 -188 -15
l-104 -7 7 68 c13 127 -10 114 211 114 217 0 355 12 465 39 41 10 78 19 82 20
3 1 2 -16 -4 -36z m-1082 -9 l52 -5 31 -86 c17 -47 29 -88 26 -91 -7 -7 -238
15 -279 26 -24 6 -37 22 -63 73 -52 101 -52 101 75 94 59 -3 130 -8 158 -11z
m318 -56 c-4 -29 -9 -71 -13 -93 l-6 -40 -56 -3 c-86 -5 -98 4 -130 89 -15 41
-28 80 -28 87 -1 9 29 12 119 12 l121 0 -7 -52z m-285 -146 l95 -7 17 -67 17
-68 -88 0 c-49 0 -100 -4 -114 -10 -23 -9 -28 -4 -80 79 -31 49 -56 90 -56 93
0 3 26 1 58 -4 31 -5 99 -12 151 -16z m261 -47 c0 -18 -3 -47 -6 -64 -6 -30
-9 -31 -55 -31 -47 0 -48 1 -58 38 -6 21 -13 51 -17 68 l-6 29 71 -3 71 -4 0
-33z m-126 -127 c5 -9 7 -20 3 -25 -4 -4 -50 -9 -101 -11 -88 -4 -95 -3 -105
17 -15 26 -8 29 74 34 95 6 117 3 129 -15z m116 -7 c0 -45 -99 -33 -100 12 0
4 23 7 50 7 43 0 50 -3 50 -19z m151 -1 c46 0 50 -16 12 -44 -24 -18 -27 -18
-53 -2 -16 9 -42 16 -59 16 -25 0 -31 4 -31 21 0 20 4 21 46 15 26 -3 64 -6
85 -6z m-1021 -128 c25 -12 25 -12 -5 -7 -33 6 -218 94 -250 119 -16 13 128
-51 255 -112z m1255 98 c-32 -14 -148 -51 -176 -57 -37 -7 -46 14 -18 43 21
22 29 24 118 23 63 0 89 -3 76 -9z m95 0 c10 -6 11 -12 5 -18 -17 -16 -49 -22
-64 -13 -12 8 -12 12 -2 25 15 18 39 20 61 6z m-580 -32 c0 -7 3 -23 6 -35 6
-22 3 -23 -42 -23 -37 0 -60 7 -93 29 -41 27 -42 30 -20 34 56 10 149 7 149
-5z m80 2 c0 -19 -24 -60 -35 -60 -12 0 -25 30 -25 58 0 7 13 12 30 12 17 0
30 -4 30 -10z m-245 -32 c24 -17 43 -33 41 -36 -2 -2 -29 -10 -60 -18 -53 -14
-58 -13 -98 7 -24 12 -56 31 -73 43 l-30 21 60 6 c110 10 113 10 160 -23z
m333 21 c-5 -15 -75 -55 -83 -48 -3 4 -1 18 4 33 9 21 17 26 47 26 22 0 34 -4
32 -11z m-572 -19 c5 -5 61 -36 123 -69 96 -50 111 -60 95 -69 -43 -22 -82
-23 -145 -2 -100 34 -234 99 -223 109 8 9 104 38 130 40 5 1 14 -3 20 -9z
m598 -37 c-10 -7 -34 -13 -53 -13 -25 0 -32 -3 -22 -9 11 -7 7 -13 -17 -25
-42 -22 -54 -20 -50 6 2 16 12 24 33 29 17 3 46 15 64 27 27 16 38 19 49 10
12 -10 11 -14 -4 -25z m560 23 c-8 -21 -40 -40 -155 -91 -57 -25 -106 -50
-109 -54 -6 -10 -146 -41 -184 -41 -13 0 -38 8 -55 17 l-30 18 87 21 c78 19
91 20 126 8 22 -8 41 -12 44 -9 4 4 -16 14 -57 27 -8 2 15 17 52 33 97 41 75
42 -35 2 -142 -53 -185 -61 -233 -43 -22 8 -33 15 -24 15 9 1 69 24 133 51
l117 51 67 -21 67 -21 90 24 c50 13 93 25 97 26 4 0 5 -5 2 -13z m222 -5 c-8
-13 -177 -83 -184 -77 -9 9 -2 13 93 50 103 40 98 39 91 27z m-737 -52 c-35
-17 -119 -37 -108 -25 3 3 32 17 65 30 65 27 97 23 43 -5z m-732 -21 c140 -65
122 -78 -37 -28 -52 16 -103 30 -112 30 -40 0 -4 39 37 40 11 0 62 -19 112
-42z m443 15 c20 -26 20 -28 3 -34 -30 -12 -67 -10 -117 7 -54 19 -51 28 14
42 69 15 77 14 100 -15z m82 2 c-6 -33 -41 -33 -65 0 l-18 25 44 0 c42 0 44
-1 39 -25z m685 -29 c-5 -13 -183 -63 -192 -54 -2 2 40 22 93 45 92 39 111 40
99 9z m-1275 -23 c117 -34 157 -53 110 -53 -28 0 -240 69 -247 80 -9 15 -3 13
137 -27z m754 -18 c17 -13 13 -14 -48 -15 -71 0 -101 7 -92 21 9 15 118 11
140 -6z m-235 -9 c-14 -8 -32 -11 -40 -8 -12 5 -10 8 9 13 42 12 56 9 31 -5z
m678 -10 c-8 -8 -203 -56 -224 -55 -11 1 30 14 90 29 108 28 143 34 134 26z
m-959 -15 c0 -9 -33 -21 -59 -21 -11 0 -11 3 -1 15 13 16 60 21 60 6z m238 -4
c8 -9 1 -11 -34 -8 -24 1 -44 7 -44 12 0 14 66 11 78 -4z m-46 -37 c99 -17 76
-34 -37 -28 -106 6 -129 14 -94 34 13 8 33 12 44 9 11 -2 50 -9 87 -15z"/>
<path d="M3170 4200 c0 -5 10 -10 23 -10 18 0 19 2 7 10 -19 13 -30 13 -30 0z"/>
<path d="M2315 4110 c3 -5 15 -10 25 -10 10 0 22 5 25 10 4 6 -7 10 -25 10
-18 0 -29 -4 -25 -10z"/>
<path d="M3770 3952 c63 -60 117 -107 120 -105 6 6 -187 189 -215 205 -11 6
32 -39 95 -100z"/>
<path d="M1551 3759 c-13 -17 -20 -33 -17 -36 7 -8 65 40 65 55 1 22 -25 12
-48 -19z"/>
<path d="M4190 3205 c-7 -9 -10 -18 -7 -21 10 -11 37 5 37 21 0 19 -14 19 -30
0z"/>
<path d="M3037 1673 c-9 -14 -57 -197 -56 -213 1 -21 26 50 49 139 18 67 21
96 7 74z"/>
<path d="M4190 2133 c-14 -9 -27 -19 -30 -22 -3 -4 -22 -19 -43 -34 -47 -35
-39 -51 19 -42 40 6 44 4 44 -14 0 -11 5 -23 11 -27 14 -8 29 14 29 44 0 13 7
37 16 53 12 24 13 34 3 45 -15 18 -19 18 -49 -3z"/>
<path d="M4270 2086 c-14 -16 -20 -31 -16 -42 6 -15 9 -15 31 6 24 22 34 60
17 60 -5 0 -19 -11 -32 -24z"/>
<path d="M4262 1988 c-20 -31 -68 -68 -90 -68 -6 0 -12 10 -14 23 -3 14 -9 2
-18 -36 -7 -31 -19 -62 -27 -68 -30 -25 -10 -28 35 -5 26 14 76 54 111 90 53
55 61 69 51 81 -18 22 -26 19 -48 -17z"/>
<path d="M4074 1917 c-58 -34 -95 -74 -128 -136 -20 -38 -36 -72 -36 -75 0 -3
9 -6 20 -6 12 0 48 32 94 85 96 111 120 173 50 132z"/>
<path d="M2198 349 c-53 -4 -116 -13 -139 -19 -39 -11 -42 -13 -26 -25 40 -29
178 -40 492 -40 259 0 326 3 408 18 53 11 97 23 97 27 0 13 -58 28 -150 40
-96 11 -537 11 -682 -1z"/>
</g>
</svg>